<svg width="86" height="86" viewBox="0 0 86 86" fill="none" xmlns="http://www.w3.org/2000/svg">
<path d="M3.58331 19.35C3.58331 13.4178 6.65781 7.20971 11.4666 3.58337C11.4666 6.91408 14.1864 11.4667 19.35 11.4667C22.4862 11.4667 25.4939 12.7126 27.7115 14.9302C29.9291 17.1478 31.175 20.1555 31.175 23.2917C31.175 24.8132 30.8636 26.2558 30.3393 27.5921C33.2631 29.9125 36.1424 32.2884 38.9755 34.7186L30.7769 42.9173C28.3477 40.0833 25.9717 37.204 23.6503 34.2811C22.2821 34.8271 20.8232 35.1106 19.35 35.1167C10.6389 35.1167 3.58331 28.0611 3.58331 19.35ZM51.4824 46.3426L56.7682 41.0568C59.216 42.3169 61.9261 42.9827 64.6791 43C69.3834 43 73.895 41.1313 77.2215 37.8048C80.5479 34.4784 82.4166 29.9668 82.4166 25.2625C82.4166 22.4048 81.6756 19.7403 80.4734 17.3516L66.65 31.175L58.7666 23.2917L72.5901 9.46828C70.1423 8.20814 67.4322 7.54241 64.6791 7.52504C59.9749 7.52504 55.4633 9.39381 52.1368 12.7202C48.8104 16.0467 46.9416 20.5583 46.9416 25.2625C46.9416 28.1203 47.6827 30.7848 48.8849 33.1735L7.52498 74.5334L15.4083 82.4167L42.4008 55.4242C49.8245 63.0409 57.6913 70.2128 65.9602 76.9023L71.5771 81.4313L77.4896 75.5188L72.9606 69.9019C66.2711 61.633 59.0992 53.7662 51.4824 46.3426Z" fill="#006FEE"/>
<path d="M82.4167 70.131H70.131V82.4167H66.0357V70.131H53.75V66.0357H66.0357V53.75H70.131V66.0357H82.4167V70.131Z" fill="#C8ACE4"/>
</svg>
