<svg width="86" height="86" viewBox="0 0 86 86" fill="none" xmlns="http://www.w3.org/2000/svg">
<g clip-path="url(#clip0_108_350)">
<path d="M32.25 20.6042C31.5373 20.6042 30.8537 20.3211 30.3497 19.8171C29.8457 19.3131 29.5625 18.6295 29.5625 17.9167V3.58337C29.5625 2.8706 29.8457 2.18703 30.3497 1.68302C30.8537 1.17902 31.5373 0.895874 32.25 0.895874C32.9628 0.895874 33.6464 1.17902 34.1504 1.68302C34.6544 2.18703 34.9375 2.8706 34.9375 3.58337V17.9167C34.9375 18.6295 34.6544 19.3131 34.1504 19.8171C33.6464 20.3211 32.9628 20.6042 32.25 20.6042ZM53.75 20.6042C53.0373 20.6042 52.3537 20.3211 51.8497 19.8171C51.3457 19.3131 51.0625 18.6295 51.0625 17.9167V3.58337C51.0625 2.8706 51.3457 2.18703 51.8497 1.68302C52.3537 1.17902 53.0373 0.895874 53.75 0.895874C54.4628 0.895874 55.1464 1.17902 55.6504 1.68302C56.1544 2.18703 56.4375 2.8706 56.4375 3.58337V17.9167C56.4375 18.6295 56.1544 19.3131 55.6504 19.8171C55.1464 20.3211 54.4628 20.6042 53.75 20.6042ZM82.4167 34.9375H68.0834C67.3706 34.9375 66.687 34.6544 66.183 34.1504C65.679 33.6464 65.3959 32.9628 65.3959 32.25C65.3959 31.5373 65.679 30.8537 66.183 30.3497C66.687 29.8457 67.3706 29.5625 68.0834 29.5625H82.4167C83.1295 29.5625 83.8131 29.8457 84.3171 30.3497C84.8211 30.8537 85.1042 31.5373 85.1042 32.25C85.1042 32.9628 84.8211 33.6464 84.3171 34.1504C83.8131 34.6544 83.1295 34.9375 82.4167 34.9375ZM82.4167 56.4375H68.0834C67.3706 56.4375 66.687 56.1544 66.183 55.6504C65.679 55.1464 65.3959 54.4628 65.3959 53.75C65.3959 53.0373 65.679 52.3537 66.183 51.8497C66.687 51.3457 67.3706 51.0625 68.0834 51.0625H82.4167C83.1295 51.0625 83.8131 51.3457 84.3171 51.8497C84.8211 52.3537 85.1042 53.0373 85.1042 53.75C85.1042 54.4628 84.8211 55.1464 84.3171 55.6504C83.8131 56.1544 83.1295 56.4375 82.4167 56.4375ZM53.75 85.1042C53.0373 85.1042 52.3537 84.8211 51.8497 84.3171C51.3457 83.8131 51.0625 83.1295 51.0625 82.4167V68.0834C51.0625 67.3706 51.3457 66.687 51.8497 66.183C52.3537 65.679 53.0373 65.3959 53.75 65.3959C54.4628 65.3959 55.1464 65.679 55.6504 66.183C56.1544 66.687 56.4375 67.3706 56.4375 68.0834V82.4167C56.4375 83.1295 56.1544 83.8131 55.6504 84.3171C55.1464 84.8211 54.4628 85.1042 53.75 85.1042ZM32.25 85.1042C31.5373 85.1042 30.8537 84.8211 30.3497 84.3171C29.8457 83.8131 29.5625 83.1295 29.5625 82.4167V68.0834C29.5625 67.3706 29.8457 66.687 30.3497 66.183C30.8537 65.679 31.5373 65.3959 32.25 65.3959C32.9628 65.3959 33.6464 65.679 34.1504 66.183C34.6544 66.687 34.9375 67.3706 34.9375 68.0834V82.4167C34.9375 83.1295 34.6544 83.8131 34.1504 84.3171C33.6464 84.8211 32.9628 85.1042 32.25 85.1042ZM17.9167 56.4375H3.58337C2.8706 56.4375 2.18703 56.1544 1.68302 55.6504C1.17902 55.1464 0.895874 54.4628 0.895874 53.75C0.895874 53.0373 1.17902 52.3537 1.68302 51.8497C2.18703 51.3457 2.8706 51.0625 3.58337 51.0625H17.9167C18.6295 51.0625 19.3131 51.3457 19.8171 51.8497C20.3211 52.3537 20.6042 53.0373 20.6042 53.75C20.6042 54.4628 20.3211 55.1464 19.8171 55.6504C19.3131 56.1544 18.6295 56.4375 17.9167 56.4375ZM17.9167 34.9375H3.58337C2.8706 34.9375 2.18703 34.6544 1.68302 34.1504C1.17902 33.6464 0.895874 32.9628 0.895874 32.25C0.895874 31.5373 1.17902 30.8537 1.68302 30.3497C2.18703 29.8457 2.8706 29.5625 3.58337 29.5625H17.9167C18.6295 29.5625 19.3131 29.8457 19.8171 30.3497C20.3211 30.8537 20.6042 31.5373 20.6042 32.25C20.6042 32.9628 20.3211 33.6464 19.8171 34.1504C19.3131 34.6544 18.6295 34.9375 17.9167 34.9375Z" fill="#C8ACE4"/>
<path d="M57.3334 70.7709H28.6667C25.1044 70.7662 21.6892 69.3489 19.1702 66.8299C16.6512 64.3109 15.234 60.8958 15.2292 57.3334V28.6667C15.234 25.1044 16.6512 21.6892 19.1702 19.1702C21.6892 16.6512 25.1044 15.234 28.6667 15.2292H57.3334C60.8958 15.234 64.3109 16.6512 66.8299 19.1702C69.3489 21.6892 70.7662 25.1044 70.7709 28.6667V57.3334C70.7662 60.8958 69.3489 64.3109 66.8299 66.8299C64.3109 69.3489 60.8958 70.7662 57.3334 70.7709ZM28.6667 20.6042C26.5293 20.6071 24.4802 21.4574 22.9688 22.9688C21.4574 24.4802 20.6071 26.5293 20.6042 28.6667V57.3334C20.6071 59.4708 21.4574 61.5199 22.9688 63.0313C24.4802 64.5427 26.5293 65.3931 28.6667 65.3959H57.3334C59.4708 65.3931 61.5199 64.5427 63.0313 63.0313C64.5427 61.5199 65.3931 59.4708 65.3959 57.3334V28.6667C65.3931 26.5293 64.5427 24.4802 63.0313 22.9688C61.5199 21.4574 59.4708 20.6071 57.3334 20.6042H28.6667Z" fill="#9058C9"/>
</g>
<defs>
<clipPath id="clip0_108_350">
<rect width="86" height="86" fill="white"/>
</clipPath>
</defs>
</svg>
