<svg width="86" height="86" viewBox="0 0 86 86" fill="none" xmlns="http://www.w3.org/2000/svg">
<g clip-path="url(#clip0_108_311)">
<path d="M32.25 20.6041C31.5372 20.6041 30.8536 20.321 30.3496 19.817C29.8456 19.313 29.5625 18.6294 29.5625 17.9166V3.58331C29.5625 2.87054 29.8456 2.18697 30.3496 1.68296C30.8536 1.17896 31.5372 0.895813 32.25 0.895813C32.9627 0.895813 33.6463 1.17896 34.1503 1.68296C34.6543 2.18697 34.9375 2.87054 34.9375 3.58331V17.9166C34.9375 18.6294 34.6543 19.313 34.1503 19.817C33.6463 20.321 32.9627 20.6041 32.25 20.6041ZM53.75 20.6041C53.0372 20.6041 52.3536 20.321 51.8496 19.817C51.3456 19.313 51.0625 18.6294 51.0625 17.9166V3.58331C51.0625 2.87054 51.3456 2.18697 51.8496 1.68296C52.3536 1.17896 53.0372 0.895813 53.75 0.895813C54.4627 0.895813 55.1463 1.17896 55.6503 1.68296C56.1543 2.18697 56.4375 2.87054 56.4375 3.58331V17.9166C56.4375 18.6294 56.1543 19.313 55.6503 19.817C55.1463 20.321 54.4627 20.6041 53.75 20.6041ZM82.4166 34.9375H68.0833C67.3705 34.9375 66.687 34.6543 66.183 34.1503C65.679 33.6463 65.3958 32.9627 65.3958 32.25C65.3958 31.5372 65.679 30.8536 66.183 30.3496C66.687 29.8456 67.3705 29.5625 68.0833 29.5625H82.4166C83.1294 29.5625 83.813 29.8456 84.317 30.3496C84.821 30.8536 85.1041 31.5372 85.1041 32.25C85.1041 32.9627 84.821 33.6463 84.317 34.1503C83.813 34.6543 83.1294 34.9375 82.4166 34.9375ZM82.4166 56.4375H68.0833C67.3705 56.4375 66.687 56.1543 66.183 55.6503C65.679 55.1463 65.3958 54.4627 65.3958 53.75C65.3958 53.0372 65.679 52.3536 66.183 51.8496C66.687 51.3456 67.3705 51.0625 68.0833 51.0625H82.4166C83.1294 51.0625 83.813 51.3456 84.317 51.8496C84.821 52.3536 85.1041 53.0372 85.1041 53.75C85.1041 54.4627 84.821 55.1463 84.317 55.6503C83.813 56.1543 83.1294 56.4375 82.4166 56.4375ZM53.75 85.1041C53.0372 85.1041 52.3536 84.821 51.8496 84.317C51.3456 83.813 51.0625 83.1294 51.0625 82.4166V68.0833C51.0625 67.3705 51.3456 66.687 51.8496 66.183C52.3536 65.679 53.0372 65.3958 53.75 65.3958C54.4627 65.3958 55.1463 65.679 55.6503 66.183C56.1543 66.687 56.4375 67.3705 56.4375 68.0833V82.4166C56.4375 83.1294 56.1543 83.813 55.6503 84.317C55.1463 84.821 54.4627 85.1041 53.75 85.1041ZM32.25 85.1041C31.5372 85.1041 30.8536 84.821 30.3496 84.317C29.8456 83.813 29.5625 83.1294 29.5625 82.4166V68.0833C29.5625 67.3705 29.8456 66.687 30.3496 66.183C30.8536 65.679 31.5372 65.3958 32.25 65.3958C32.9627 65.3958 33.6463 65.679 34.1503 66.183C34.6543 66.687 34.9375 67.3705 34.9375 68.0833V82.4166C34.9375 83.1294 34.6543 83.813 34.1503 84.317C33.6463 84.821 32.9627 85.1041 32.25 85.1041ZM17.9166 56.4375H3.58331C2.87054 56.4375 2.18697 56.1543 1.68296 55.6503C1.17896 55.1463 0.895813 54.4627 0.895813 53.75C0.895813 53.0372 1.17896 52.3536 1.68296 51.8496C2.18697 51.3456 2.87054 51.0625 3.58331 51.0625H17.9166C18.6294 51.0625 19.313 51.3456 19.817 51.8496C20.321 52.3536 20.6041 53.0372 20.6041 53.75C20.6041 54.4627 20.321 55.1463 19.817 55.6503C19.313 56.1543 18.6294 56.4375 17.9166 56.4375ZM17.9166 34.9375H3.58331C2.87054 34.9375 2.18697 34.6543 1.68296 34.1503C1.17896 33.6463 0.895813 32.9627 0.895813 32.25C0.895813 31.5372 1.17896 30.8536 1.68296 30.3496C2.18697 29.8456 2.87054 29.5625 3.58331 29.5625H17.9166C18.6294 29.5625 19.313 29.8456 19.817 30.3496C20.321 30.8536 20.6041 31.5372 20.6041 32.25C20.6041 32.9627 20.321 33.6463 19.817 34.1503C19.313 34.6543 18.6294 34.9375 17.9166 34.9375Z" fill="#C8ACE4"/>
<path d="M57.3333 70.7708H28.6666C25.1042 70.7661 21.6891 69.3488 19.1701 66.8298C16.6511 64.3108 15.2339 60.8957 15.2291 57.3333V28.6666C15.2339 25.1042 16.6511 21.6891 19.1701 19.1701C21.6891 16.6511 25.1042 15.2339 28.6666 15.2291H57.3333C60.8957 15.2339 64.3108 16.6511 66.8298 19.1701C69.3488 21.6891 70.7661 25.1042 70.7708 28.6666V57.3333C70.7661 60.8957 69.3488 64.3108 66.8298 66.8298C64.3108 69.3488 60.8957 70.7661 57.3333 70.7708ZM28.6666 20.6041C26.5292 20.607 24.4801 21.4573 22.9687 22.9687C21.4573 24.4801 20.607 26.5292 20.6041 28.6666V57.3333C20.607 59.4707 21.4573 61.5198 22.9687 63.0312C24.4801 64.5426 26.5292 65.3929 28.6666 65.3958H57.3333C59.4707 65.3929 61.5198 64.5426 63.0312 63.0312C64.5426 61.5198 65.3929 59.4707 65.3958 57.3333V28.6666C65.3929 26.5292 64.5426 24.4801 63.0312 22.9687C61.5198 21.4573 59.4707 20.607 57.3333 20.6041H28.6666Z" fill="#006FEE"/>
</g>
<defs>
<clipPath id="clip0_108_311">
<rect width="86" height="86" fill="white"/>
</clipPath>
</defs>
</svg>
