<svg width="86" height="86" viewBox="0 0 86 86" fill="none" xmlns="http://www.w3.org/2000/svg">
<path d="M10.4337 85C6.4794 85 3.66956 83.2313 2.00412 79.694C0.338687 76.1567 0.744967 72.8698 3.22296 69.8333L29.0419 38.3333V10.3333H24.3898C23.0717 10.3333 21.9677 9.88533 21.0776 8.98933C20.1875 8.09333 19.7409 6.98578 19.7378 5.66667C19.7347 4.34756 20.1813 3.24 21.0776 2.344C21.9739 1.448 23.0779 1 24.3898 1H61.6063C62.9244 1 64.03 1.448 64.9232 2.344C65.8164 3.24 66.2614 4.34756 66.2583 5.66667C66.2552 6.98578 65.8086 8.09489 64.9185 8.994C64.0285 9.89311 62.9244 10.3396 61.6063 10.3333H56.9542V38.3333L82.7731 69.8333C85.2542 72.8667 85.6621 76.1536 83.9966 79.694C82.3312 83.2344 79.5198 85.0031 75.5625 85H10.4337ZM19.7378 71H66.2583L50.4413 52.3333H35.5548L19.7378 71ZM10.4337 75.6667H75.5625L47.6501 41.6V10.3333H38.346V41.6L10.4337 75.6667Z" fill="#006FEE"/>
<path d="M65 73.3328L48.8597 84.0936C48.728 84.1812 48.5749 84.2315 48.4168 84.2391C48.2587 84.2467 48.1015 84.2112 47.962 84.1365C47.8225 84.0618 47.7058 83.9506 47.6244 83.8149C47.5431 83.6791 47.5001 83.5238 47.5 83.3656V58.6346C47.5001 58.4763 47.5431 58.321 47.6244 58.1852C47.7058 58.0495 47.8225 57.9383 47.962 57.8636C48.1015 57.7889 48.2587 57.7534 48.4168 57.761C48.5749 57.7686 48.728 57.8189 48.8597 57.9066L65 68.6673V58.6346C65.0001 58.4763 65.0431 58.321 65.1244 58.1852C65.2058 58.0495 65.3225 57.9383 65.462 57.8636C65.6015 57.7889 65.7587 57.7534 65.9168 57.761C66.0749 57.7686 66.228 57.8189 66.3597 57.9066L84.908 70.2721C85.0278 70.352 85.1261 70.4602 85.194 70.5872C85.262 70.7142 85.2976 70.856 85.2976 71.0001C85.2976 71.1441 85.262 71.2859 85.194 71.4129C85.1261 71.5399 85.0278 71.6482 84.908 71.7281L66.3597 84.0936C66.228 84.1812 66.0749 84.2315 65.9168 84.2391C65.7587 84.2467 65.6015 84.2112 65.462 84.1365C65.3225 84.0618 65.2058 83.9506 65.1244 83.8149C65.0431 83.6791 65.0001 83.5238 65 83.3656V73.3328Z" fill="#C8ACE4"/>
</svg>
