<svg width="80" height="80" viewBox="0 0 80 80" fill="none" xmlns="http://www.w3.org/2000/svg">
<path d="M72.25 23.7698C67.0542 23.7698 64.1517 30.4474 65.3342 35.4093L52.6134 51.9179C51.5384 51.5006 49.9617 51.5006 48.8867 51.9179L39.7492 40.0929C40.9675 35.1311 38.065 28.407 32.8334 28.407C27.6375 28.407 24.6992 35.0847 25.9175 40.0929L9.57754 61.1924C5.74337 59.6621 0.583374 63.4183 0.583374 70.1423C0.583374 75.2433 3.80837 79.4168 7.75004 79.4168C12.9459 79.4168 15.8484 72.7392 14.6659 67.7773L30.97 46.6314C32.045 47.0488 33.6217 47.0488 34.6967 46.6314L43.8342 58.4564C42.6159 63.4183 45.5184 70.1423 50.75 70.1423C55.9459 70.1423 58.8842 63.4647 57.6659 58.4564L70.4225 41.9942C74.2567 43.5245 79.4167 39.7683 79.4167 33.0443C79.4167 27.9433 76.1917 23.7698 72.25 23.7698Z" fill="#006FEE"/>
<path d="M50.75 28.4069L54.1184 18.8078L61.5 14.4951L54.1184 10.1825L50.75 0.583374L47.4534 10.1825L40 14.4951L47.4534 18.8078L50.75 28.4069ZM9.54171 37.6814L11.3334 28.4069L18.5 26.0883L11.3334 23.7696L9.54171 14.4951L7.75004 23.7696L0.583374 26.0883L7.75004 28.4069L9.54171 37.6814Z" fill="#C8ACE4"/>
</svg>
