<svg width="86" height="86" viewBox="0 0 86 86" fill="none" xmlns="http://www.w3.org/2000/svg">
<path d="M21.1018 64.8982V21.1019H64.8981V64.8982H21.1018ZM3.58331 64.8982V56.1389H12.3426V64.8982H3.58331ZM3.58331 29.8611V21.1019H12.3426V29.8611H3.58331ZM21.1018 82.4167V73.6574H29.8611V82.4167H21.1018ZM21.1018 12.3426V3.58337H29.8611V12.3426H21.1018ZM56.1389 82.4167V73.6574H64.8981V82.4167H56.1389ZM56.1389 12.3426V3.58337H64.8981V12.3426H56.1389ZM73.6574 64.8982V56.1389H82.4166V64.8982H73.6574ZM73.6574 29.8611V21.1019H82.4166V29.8611H73.6574Z" fill="#006FEE"/>
<path d="M57.6591 38.2222H44.0587C43.3877 36.4761 42.1422 34.9638 40.4938 33.8941C38.8455 32.8244 36.8756 32.2499 34.856 32.25C29.4648 32.25 25.0833 36.2663 25.0833 41.2083C25.0833 46.1503 29.4648 50.1667 34.856 50.1667C36.8756 50.1667 38.8455 49.5923 40.4938 48.5226C42.1422 47.4529 43.3877 45.9406 44.0587 44.1944H44.6288L47.8863 47.1806L51.1439 44.1944L54.4015 47.1806L60.9166 41.1486L57.6591 38.2222ZM34.856 45.6875C32.1685 45.6875 29.9697 43.6719 29.9697 41.2083C29.9697 38.7448 32.1685 36.7292 34.856 36.7292C37.5435 36.7292 39.7424 38.7448 39.7424 41.2083C39.7424 43.6719 37.5435 45.6875 34.856 45.6875Z" fill="#C8ACE4"/>
</svg>
